<?xml version="1.0" encoding="UTF-8"?>
<svg xmlns="http://www.w3.org/2000/svg" viewBox="0 0 256 256" width="256" height="256">
  <title>Spintax</title>
  <g transform="translate(16, 16) scale(0.896)">
    <path d="M227.675 187.249c2.05-1.17 2.8-2.38 2.79-4.78-.09-38.6-.08-77.2 0-115.8 0-2.28-.75-3.42-2.68-4.53-33.43-19.17-66.81-38.42-100.16-57.72-1.92-1.11-3.27-1.15-5.23-.01-31.91 18.52-63.86 36.95-95.82 55.38-2.29 1.32-4.69 2.47-7.04 3.7v122.37c9.74 4.85 18.95 10.62 28.37 16.03 24.75 14.23 49.47 28.52 74.19 42.82.85.49 1.92.74 2.46 1.72h.62c17.06-9.9 34.1-19.83 51.18-29.7s34.17-19.72 51.33-29.47z" fill="#020202"/>
    <path d="M217.725 175.599c-.01-33.97-.02-67.93.02-101.9 0-1.71-.4-2.77-2-3.67-9.31-5.26-18.57-10.6-27.77-16.04-1.58-.93-2.66-.76-4.14.1-11.82 6.86-23.7 13.63-35.56 20.44-3.54 2.03-7.06 4.09-10.94 6.33 1.36.83 2.27 1.42 3.22 1.97 8.63 4.99 17.23 10.05 25.93 14.92 1.99 1.11 2.6 2.35 2.6 4.59-.08 30.98-.05 61.96-.05 92.94v10.48c.7-.17 1.02-.18 1.26-.32 15.32-8.83 30.63-17.69 45.98-26.47 1.48-.85 1.47-1.99 1.47-3.36z" fill="#d6af3c"/>
    <path d="M34.885 109.079c14.64 8.37 29.22 16.84 43.83 25.25.73.42 1.39 1.28 2.53.83 0-11.31.06-22.63-.05-33.95-.02-2.05.66-3.08 2.4-4.07 11.26-6.39 22.46-12.91 33.68-19.39 18.42-10.64 36.84-21.28 55.49-32.05-.36-.43-.45-.63-.61-.72-15.22-8.8-30.45-17.58-45.64-26.43-1.31-.76-2.2-.45-3.34.21-29.54 17.09-59.1 34.17-88.68 51.19-1.52.88-2.11 1.84-2.09 3.62.09 10.39.11 20.79-.01 31.19-.03 2.15.68 3.28 2.5 4.33z" fill="#00abf3"/>
    <path d="M156.215 161.409v-3.66c-10.06 5.87-19.48 11.32-28.83 16.89-1.74 1.04-2.98.97-4.73-.04-29.18-16.92-58.42-33.73-87.59-50.66-2.57-1.49-2.71-.69-2.7 1.69.07 16.57.07 33.14-.01 49.71 0 1.99.53 3.16 2.29 4.18 29.51 16.97 58.98 34 88.44 51.05 1.41.82 2.43.87 3.9 0 8.86-5.23 17.76-10.38 26.73-15.41 2-1.12 2.57-2.44 2.56-4.65-.09-16.37-.05-32.73-.05-49.1z" fill="#a91455"/>
    <path d="M154.355 105.469a2237 2237 0 0 1-28.04-16.19c-1.36-.8-2.27-.73-3.59.05a1727 1727 0 0 1-26.71 15.41c-1.5.85-1.91 1.8-1.89 3.41.09 5.46.03 10.91.03 16.37 0 5.56.05 11.12-.03 16.68-.02 1.51.4 2.41 1.76 3.18 9.12 5.18 18.21 10.39 27.24 15.71 1.41.83 2.31.58 3.56-.15 9.14-5.34 18.31-10.65 27.52-15.88 1.44-.82 1.98-1.68 1.97-3.35q-.12-16.065 0-32.13c.01-1.55-.48-2.36-1.81-3.12z" fill="#fcfcfc"/>
  </g>
</svg>
